# xmcd
#
# Track frame offsets:
#	233
#	21217
#	42438
#	55940
#	69257
#	74391
#	116259
#	139959
#	155938
#	178483
#	199898
#	221772
#	244699
#	269978
#	297482
#	318824
#
# Disc length: 4532 seconds
#
# Revision: 1
# Processed by: cddbd v1.5.2PL0 Copyright (c) Steve Scherf et al.
# Submitted via: audiograbber 1.83.01
#
DISCID=0b11b110
DTITLE=Blue Connection - Powerplay
DYEAR=2005
DGENRE=Funk
TTITLE0=Crazy Funky Thing
TTITLE1=Bring It To Me
TTITLE2=Straight To Funk
TTITLE3=Black Mamba (Princie Style)
TTITLE4=Penalty Time (68s)
TTITLE5=Powerplay
TTITLE6=Life's Attitude
TTITLE7=Jam
TTITLE8=Spirit Of Love
TTITLE9=Jazz Hot Chili
TTITLE10=Storm
TTITLE11=Plea
TTITLE12=Caught In A Dream
TTITLE13=Northern Lights
TTITLE14=Search For Another World
TTITLE15=Ausischmeissa Blues
EXTD=
EXTT0=
EXTT1=
EXTT2=
EXTT3=
EXTT4=
EXTT5=
EXTT6=
EXTT7=
EXTT8=
EXTT9=
EXTT10=
EXTT11=
EXTT12=
EXTT13=
EXTT14=
EXTT15=
PLAYORDER=
